<?xml version="1.0" encoding="utf-8"?>
<!-- Generator: Adobe Illustrator 27.9.0, SVG Export Plug-In . SVG Version: 6.00 Build 0)  -->
<svg version="1.1" id="vectores" xmlns="http://www.w3.org/2000/svg" xmlns:xlink="http://www.w3.org/1999/xlink" x="0px" y="0px"
	 viewBox="0 0 595.28 841.89" style="enable-background:new 0 0 595.28 841.89;" xml:space="preserve">
<style type="text/css">
	.st0{fill:#18090C;}
	.st1{fill:#ED6E2B;}
	.st2{fill:#FEDDB3;}
	.st3{fill:#FCF8EC;}
	.st4{fill:none;stroke:#000000;stroke-miterlimit:10;}
	.st5{fill:#5E5459;}
	.st6{fill:#EFD5E3;}
	.st7{fill:#B28B99;}
	.st8{fill:#FCFEFE;}
	.st9{fill:#FFFFFF;}
	.st10{fill:#D0A8B9;}
	.st11{fill:#E8C4D8;}
	.st12{fill:#F5E6F0;}
	.st13{fill:#B994A1;}
	.st14{fill:none;stroke:#FFFFFF;stroke-miterlimit:10;}
	.st15{fill:none;stroke:#B28B99;stroke-miterlimit:10;}
	.st16{fill:none;stroke:#F5E6F0;stroke-miterlimit:10;}
	.st17{fill:none;stroke:#E8C4D8;stroke-miterlimit:10;}
	.st18{fill:none;stroke:#EFD5E3;stroke-miterlimit:10;}
	.st19{fill:none;stroke:#D0A8B9;stroke-miterlimit:10;}
	.st20{fill:none;stroke:#B994A1;stroke-miterlimit:10;}
	.st21{fill:#ABCD9D;}
</style>
<g id="XMLID_00000028293070609798596820000017195688889387729814_">
	<g>
		<g id="XMLID_00000110437118628449797990000002957722400316784272_">
			<g>
				<path class="st0" d="M307.32,283.32c-8.97-2.22-17.34-5.53-16.83-10.6c0,0,9.42,12.18,36.88,10.36
					c11.67-0.77,4.57-18.16-15.69-28.91c-4.2-2.23,7.58,12.26,6.55,13.96c0,0-8.17-18.04-24.34-21.79c0,0,6.64,13.45-12.08,21.62
					c0,0-64.35,27.74,18.46,37.95c0,0-33.95,3.24-42.97-9.19c0,0-24.34,7.32-7.83,25.37c0,0,52-18.26,96.04-0.84
					c0,0,6.98,2.47,9.36-7.08c1.73-6.94-1.22-14.14-7.08-18.24c-4.65-3.25-11.91-6.79-23.09-9.25
					C320.73,285.97,313.87,284.94,307.32,283.32z M339.34,283.62c43.4,17.36,22.13,45.61,22.13,45.61l-49.7,68.26
					c-11.07,19.23-22.13,0-22.13,0l-49.53-68.43c-19.41-26.72,12.59-36.93,12.59-36.93s-5.27-16.85,20.43-26.22
					c25.7-9.36,11.4-29.44,11.4-29.44C350.91,257.06,339.34,283.62,339.34,283.62z M310.49,388.72l43.15-59.83
					c-23.26-8.62-45.58-10.1-63.69-8.89c-0.85,0.05-1.68,0.11-2.51,0.18c-6.15,0.5-11.78,1.3-16.74,2.21l-3.7,0.72
					c-12.11,2.5-19.4,5.44-19.4,5.44l11.79,16.04l1.66,2.26l9.65,13.12l2.36,3.2l18.79,25.55
					C301.98,382.51,310.49,388.72,310.49,388.72z"/>
				<path class="st1" d="M347.79,295.93c5.86,4.1,8.81,11.3,7.08,18.24c-2.38,9.55-9.36,7.08-9.36,7.08
					c-44.04-17.42-96.04,0.84-96.04,0.84c-16.51-18.05,7.83-25.37,7.83-25.37c9.02,12.43,42.97,9.19,42.97,9.19
					c-82.81-10.21-18.46-37.95-18.46-37.95s-7.23,11.49,8.68,17.44c0,0-7.49-8.51-4.94-14.04c0,0,2.93,14.37,21.77,11.96
					c6.55,1.62,13.41,2.65,17.38,3.36C335.88,289.14,343.14,292.68,347.79,295.93z"/>
				<path class="st2" d="M309.49,367.94c-0.37-0.99-3.16-8.47-6.54-17.24c10.09-2.51,17.67-3.15,17.67-3.15s-7.3-0.11-18.15,1.9
					c-1.46-3.81-3.02-7.81-4.54-11.6c10.56-1.09,23.6-1.55,39.35-0.7c0,0-16.64-3.6-40.12-1.24c-3.46-8.65-6.49-15.71-7.21-15.91
					c18.11-1.21,40.43,0.27,63.69,8.89l-43.15,59.83c0,0-8.51-6.21-18.64,0l-18.79-25.55c3.94-2.63,8.19-4.84,12.46-6.67
					l12.75,22.98c-0.64-1.35-5.67-11.88-11.3-23.59c5.08-2.09,10.15-3.68,14.75-4.87L309.49,367.94z"/>
				<path class="st3" d="M311.68,254.17c20.26,10.75,27.36,28.14,15.69,28.91c-27.46,1.82-36.88-10.36-36.88-10.36
					c-0.51,5.07,7.86,8.38,16.83,10.6c-18.84,2.41-21.77-11.96-21.77-11.96c-2.55,5.53,4.94,14.04,4.94,14.04
					c-15.91-5.95-8.68-17.44-8.68-17.44c18.72-8.17,12.08-21.62,12.08-21.62c16.17,3.75,24.34,21.79,24.34,21.79
					C319.26,266.43,307.48,251.94,311.68,254.17z"/>
				<path class="st0" d="M337.28,337.15c-15.75-0.85-28.79-0.39-39.35,0.7c-0.25-0.65-0.51-1.3-0.77-1.94
					C320.64,333.55,337.28,337.15,337.28,337.15z"/>
				<path class="st0" d="M302.47,349.45c10.85-2.01,18.15-1.9,18.15-1.9s-7.58,0.64-17.67,3.15
					C302.79,350.29,302.63,349.87,302.47,349.45z"/>
				<path class="st0" d="M309.49,367.94l-7.77-16.92c0.42-0.11,0.83-0.22,1.23-0.32C306.33,359.47,309.12,366.95,309.49,367.94z"/>
				<path class="st0" d="M302.47,349.45c0.16,0.42,0.32,0.84,0.48,1.25c-0.4,0.1-0.81,0.21-1.23,0.32l-0.6-1.31
					C301.58,349.62,302.03,349.54,302.47,349.45z"/>
				<path class="st0" d="M302.47,349.45c-0.44,0.09-0.89,0.17-1.35,0.26l-5.34-11.63c0.7-0.08,1.42-0.16,2.15-0.23
					C299.45,341.64,301.01,345.64,302.47,349.45z"/>
				<path class="st0" d="M301.12,349.71l0.6,1.31c-4.6,1.19-9.67,2.78-14.75,4.87c-0.35-0.72-0.69-1.44-1.04-2.17
					C291.39,351.9,296.55,350.62,301.12,349.71z"/>
				<path class="st2" d="M295.78,338.08l5.34,11.63c-4.57,0.91-9.73,2.19-15.19,4.01c-2.11-4.38-4.26-8.85-6.26-13.01
					C284.15,339.73,289.5,338.79,295.78,338.08z"/>
				<path class="st0" d="M298.27,379.48l-12.75-22.98c0.48-0.21,0.97-0.42,1.45-0.61C292.6,367.6,297.63,378.13,298.27,379.48z"/>
				<path class="st0" d="M297.16,335.91c-0.75,0.08-1.5,0.16-2.26,0.25l-7.17-15.64c0,0-0.19-0.3-0.29-0.34
					c0.83-0.07,1.66-0.13,2.51-0.18C290.67,320.2,293.7,327.26,297.16,335.91z"/>
				<path class="st0" d="M294.9,336.16l0.88,1.92c-6.28,0.71-11.63,1.65-16.11,2.63c-0.31-0.62-0.61-1.24-0.9-1.84
					C284.38,337.61,289.79,336.74,294.9,336.16z"/>
				<path class="st2" d="M270.7,322.39c4.96-0.91,10.59-1.71,16.74-2.21c0.1,0.04,0.29,0.34,0.29,0.34l7.17,15.64
					c-5.11,0.58-10.52,1.45-16.13,2.71C274.97,331,271.82,324.53,270.7,322.39z"/>
				<path class="st0" d="M285.93,353.72c0.35,0.73,0.69,1.45,1.04,2.17c-0.48,0.19-0.97,0.4-1.45,0.61l-1.24-2.23
					C284.83,354.08,285.38,353.89,285.93,353.72z"/>
				<path class="st0" d="M284.28,354.27l1.24,2.23c-4.27,1.83-8.52,4.04-12.46,6.67l-2.36-3.2
					C275.32,357.67,279.89,355.8,284.28,354.27z"/>
				<path class="st0" d="M285.93,353.72c-0.55,0.17-1.1,0.36-1.65,0.55l-7.18-12.95c0.82-0.21,1.68-0.41,2.57-0.61
					C281.67,344.87,283.82,349.34,285.93,353.72z"/>
				<path class="st2" d="M277.1,341.32l7.18,12.95c-4.39,1.53-8.96,3.4-13.58,5.7l-9.65-13.12
					C261.05,346.85,266.04,343.99,277.1,341.32z"/>
				<path class="st0" d="M278.77,338.87c0.29,0.6,0.59,1.22,0.9,1.84c-0.89,0.2-1.75,0.4-2.57,0.61l-1.01-1.83
					C276.99,339.27,277.88,339.06,278.77,338.87z"/>
				<path class="st0" d="M278.77,338.87c-0.89,0.19-1.78,0.4-2.68,0.62L267,323.11l3.7-0.72C271.82,324.53,274.97,331,278.77,338.87
					z"/>
				<path class="st0" d="M276.09,339.49l1.01,1.83c-11.06,2.67-16.05,5.53-16.05,5.53l-1.66-2.26
					C265.07,342.48,270.66,340.8,276.09,339.49z"/>
				<path class="st2" d="M267,323.11l9.09,16.38c-5.43,1.31-11.02,2.99-16.7,5.1l-11.79-16.04
					C247.6,328.55,254.89,325.61,267,323.11z"/>
			</g>
			<g>
				<path class="st4" d="M339.34,283.62c0,0,11.57-26.56-54.81-47.15c0,0,14.3,20.08-11.4,29.44c-25.7,9.37-20.43,26.22-20.43,26.22
					s-32,10.21-12.59,36.93l49.53,68.43c0,0,11.06,19.23,22.13,0l49.7-68.26C361.47,329.23,382.74,300.98,339.34,283.62z"/>
				<path class="st4" d="M318.23,268.13c0,0-8.17-18.04-24.34-21.79"/>
				<path class="st4" d="M311.68,254.17c-4.2-2.23,7.58,12.26,6.55,13.96"/>
				<path class="st4" d="M327.37,283.08c11.67-0.77,4.57-18.16-15.69-28.91"/>
				<path class="st4" d="M290.49,272.72c0,0,9.42,12.18,36.88,10.36"/>
				<path class="st4" d="M324.7,286.68c-3.97-0.71-10.83-1.74-17.38-3.36c-8.97-2.22-17.34-5.53-16.83-10.6"/>
				<path class="st4" d="M257.3,296.72c0,0-24.34,7.32-7.83,25.37c0,0,52-18.26,96.04-0.84"/>
				<path class="st4" d="M300.27,305.91c0,0-33.95,3.24-42.97-9.19"/>
				<path class="st4" d="M281.81,267.96c0,0-64.35,27.74,18.46,37.95"/>
				<path class="st4" d="M289.95,320c18.11-1.21,40.43,0.27,63.69,8.89l-43.15,59.83c0,0-8.51-6.21-18.64,0l-18.79-25.55l-2.36-3.2
					l-9.65-13.12l-1.66-2.26l-11.79-16.04"/>
				<path class="st4" d="M273.06,363.17c3.94-2.63,8.19-4.84,12.46-6.67c0.48-0.21,0.97-0.42,1.45-0.61
					c5.08-2.09,10.15-3.68,14.75-4.87c0.42-0.11,0.83-0.22,1.23-0.32c10.09-2.51,17.67-3.15,17.67-3.15s-7.3-0.11-18.15,1.9
					c-0.44,0.09-0.89,0.17-1.35,0.26c-4.57,0.91-9.73,2.19-15.19,4.01c-0.55,0.17-1.1,0.36-1.65,0.55c-4.39,1.53-8.96,3.4-13.58,5.7
					"/>
				<path class="st4" d="M261.05,346.85c0,0,4.99-2.86,16.05-5.53c0.82-0.21,1.68-0.41,2.57-0.61c4.48-0.98,9.83-1.92,16.11-2.63
					c0.7-0.08,1.42-0.16,2.15-0.23c10.56-1.09,23.6-1.55,39.35-0.7c0,0-16.64-3.6-40.12-1.24c-0.75,0.08-1.5,0.16-2.26,0.25
					c-5.11,0.58-10.52,1.45-16.13,2.71c-0.89,0.19-1.78,0.4-2.68,0.62c-5.43,1.31-11.02,2.99-16.7,5.1"/>
				<path class="st4" d="M270.7,322.39c0.05,0.08,0.1,0.18,0.16,0.29"/>
				<path class="st4" d="M298.34,379.62c0,0-0.02-0.05-0.07-0.14l-12.75-22.98l-1.24-2.23l-7.18-12.95l-1.01-1.83L267,323.11"/>
				<path class="st4" d="M270.7,322.39c1.12,2.14,4.27,8.61,8.07,16.48c0.29,0.6,0.59,1.22,0.9,1.84c2,4.16,4.15,8.63,6.26,13.01
					c0.35,0.73,0.69,1.45,1.04,2.17c5.63,11.71,10.66,22.24,11.3,23.59"/>
				<path class="st4" d="M309.49,367.94l-7.77-16.92l-0.6-1.31l-5.34-11.63l-0.88-1.92l-7.17-15.64c0,0-0.19-0.3-0.29-0.34"/>
				<path class="st4" d="M309.53,368.04c0,0,0-0.01-0.01-0.03"/>
				<path class="st4" d="M289.95,320c0.72,0.2,3.75,7.26,7.21,15.91c0.26,0.64,0.52,1.29,0.77,1.94c1.52,3.79,3.08,7.79,4.54,11.6
					c0.16,0.42,0.32,0.84,0.48,1.25c3.38,8.77,6.17,16.25,6.54,17.24c0.01,0.03,0.02,0.05,0.03,0.07"/>
				<path class="st4" d="M345.51,321.25c0,0,6.98,2.47,9.36-7.08c1.73-6.94-1.22-14.14-7.08-18.24c-4.65-3.25-11.91-6.79-23.09-9.25
					"/>
			</g>
		</g>
	</g>
</g>
</svg>
